<svg xmlns="http://www.w3.org/2000/svg" viewBox="0 0 24 24" width="48" height="48"><path fill="#181717" d="M12 .5C5.73.5.5 5.73.5 12c0 5.08 3.29 9.39 7.86 10.91.58.11.79-.25.79-.56 0-.28-.01-1.02-.02-2-3.2.7-3.88-1.54-3.88-1.54-.53-1.36-1.3-1.72-1.3-1.72-1.06-.72.08-.71.08-.71 1.17.08 1.79 1.2 1.79 1.2 1.04 1.78 2.73 1.27 3.4.97.11-.75.41-1.27.74-1.56-2.55-.29-5.24-1.28-5.24-5.7 0-1.26.45-2.29 1.19-3.1-.12-.29-.52-1.46.11-3.05 0 0 .97-.31 3.18 1.18a11.05 11.05 0 0 1 5.79 0c2.21-1.49 3.18-1.18 3.18-1.18.63 1.59.23 2.76.11 3.05.74.81 1.19 1.84 1.19 3.1 0 4.43-2.69 5.4-5.25 5.68.42.36.79 1.08.79 2.18 0 1.57-.02 2.84-.02 3.23 0 .31.21.68.8.56C20.71 21.38 24 17.08 24 12 24 5.73 18.27.5 12 .5z"/></svg>
