<svg xmlns="http://www.w3.org/2000/svg" viewBox="0 0 48 48" width="48" height="48"><path fill="#EA4335" d="M24 9.5c3.4 0 6.1 1.2 8.1 2.2l6-6C34.3 3 29.6 1.5 24 1.5 14.9 1.5 6.9 6.9 3 14.2l7 5.4C11.8 14 17.4 9.5 24 9.5z"/><path fill="#34A853" d="M46.5 24c0-1.6-.1-2.9-.4-4.2H24v8h12.7c-.6 3.4-3 6.2-6.3 7.8l7 5.4C43.2 39.8 46.5 32.4 46.5 24z"/><path fill="#4A90E2" d="M10 29.6c-1.2-3-1.2-6.3 0-9.3l-7-5.4C.9 18.7 0 21.3 0 24s.9 5.3 3 7.1l7-5.5z"/><path fill="#FBBC05" d="M24 46.5c6.6 0 12.2-2.2 16.3-6l-7-5.4c-2.1 1.4-4.7 2.2-9.3 2.2-6.6 0-12.2-4.5-14.9-10.6l-7 5.4C6.9 41.1 14.9 46.5 24 46.5z"/></svg>
