<svg xmlns="http://www.w3.org/2000/svg" viewBox="0 0 24 24" width="48" height="48"><path fill="#000" d="M16.365 1.43c.05 1.02-.38 2.02-1.13 2.68-.76.67-1.9 1.15-3.03 1.01-.06-1.02.36-2.02 1.12-2.68.75-.65 1.9-1.14 3.04-1.01zM12.57 5.34c.72-.04 1.83.45 2.75 1.02.64.4 1.2.83 1.83.88.41.03.83-.05 1.23-.12.49-.09 1.01-.19 1.5-.07.14.03.27.08.39.14.18.08.35.19.52.3.37.26.66.58.86.96.41.69.6 1.5.66 2.29.07.89-.04 1.83-.47 2.58-.47.83-1.28 1.42-2.12 1.84-.9.44-1.9.71-2.88.89-.62.12-1.29.2-1.88.02-.34-.1-.67-.31-.87-.61-.2-.28-.28-.63-.3-.98-.09-.96.3-1.87.76-2.64.4-.7.86-1.41 1.46-2.01.33-.33.74-.62 1.15-.86.72-.4 1.5-.71 2.32-.95.41-.12.82-.25 1.21-.43.37-.17.72-.37 1.06-.61.4-.28.7-.67.85-1.13.23-.66.2-1.41-.08-2.03-.34-.76-1.06-1.23-1.83-1.41-.86-.2-1.72-.02-2.56.16-.67.14-1.32.36-1.93.66-.57.28-1.13.59-1.66.95-.6.42-1.11.93-1.57 1.49-.46.56-.84 1.2-1.08 1.89-.33.91-.39 1.89-.26 2.82.13.9.5 1.78 1.06 2.49.68.88 1.7 1.51 2.78 1.78.57.14 1.16.19 1.74.11.5-.06.99-.2 1.45-.4.39-.16.75-.36 1.07-.61.42-.32.77-.71 1.07-1.13.33-.48.6-.99.78-1.53.19-.58.27-1.18.22-1.79-.06-.81-.43-1.58-.94-2.19-.54-.65-1.24-1.12-2.03-1.39-.76-.26-1.52-.33-2.28-.27-.77.06-1.54.19-2.27.41-.5.15-.98.34-1.44.58-.57.31-1.06.79-1.43 1.36-.47.77-.6 1.69-.44 2.54.15.85.64 1.59 1.24 2.18.7.7 1.64 1.04 2.56 1.2.58.11 1.18.12 1.76.06.6-.06 1.2-.17 1.77-.34.68-.21 1.37-.42 2.01-.79.54-.31 1.01-.78 1.33-1.34.14-.25.24-.53.3-.81.11-.49.11-1 .02-1.48-.11-.64-.38-1.22-.78-1.72-.36-.45-.8-.81-1.27-1.08-.58-.32-1.2-.51-1.82-.66-.67-.17-1.36-.28-2.04-.37-.9-.12-1.82-.23-2.71-.42-.48-.1-.97-.23-1.44-.39-.52-.17-1.02-.4-1.49-.69-.6-.38-1.09-.9-1.45-1.55-.43-.77-.55-1.65-.35-2.5.21-.87.75-1.61 1.42-2.15.93-.76 2.09-1.12 3.2-1.23.88-.09 1.77-.03 2.65.06z"/></svg>
